<?xml version="1.0" encoding="UTF-8" standalone="no"?>
<!-- Created with Inkscape (http://www.inkscape.org/) -->

<svg
   xmlns:dc="http://purl.org/dc/elements/1.1/"
   xmlns:cc="http://creativecommons.org/ns#"
   xmlns:rdf="http://www.w3.org/1999/02/22-rdf-syntax-ns#"
   xmlns:svg="http://www.w3.org/2000/svg"
   xmlns="http://www.w3.org/2000/svg"
   xmlns:sodipodi="http://sodipodi.sourceforge.net/DTD/sodipodi-0.dtd"
   xmlns:inkscape="http://www.inkscape.org/namespaces/inkscape"
   version="1.1"
   id="svg2"
   width="200"
   height="200"
   viewBox="0 0 200 200"
   sodipodi:docname="atom.svg"
   inkscape:version="0.92.2 2405546, 2018-03-11">
  <metadata
     id="metadata8">
    <rdf:RDF>
      <cc:Work
         rdf:about="">
        <dc:format>image/svg+xml</dc:format>
        <dc:type
           rdf:resource="http://purl.org/dc/dcmitype/StillImage" />
        <dc:title></dc:title>
      </cc:Work>
    </rdf:RDF>
  </metadata>
  <defs
     id="defs6" />
  <sodipodi:namedview
     pagecolor="#ffffff"
     bordercolor="#666666"
     borderopacity="1"
     objecttolerance="10"
     gridtolerance="10"
     guidetolerance="10"
     inkscape:pageopacity="0"
     inkscape:pageshadow="2"
     inkscape:window-width="1280"
     inkscape:window-height="971"
     id="namedview4"
     showgrid="false"
     inkscape:pagecheckerboard="true"
     borderlayer="true"
     inkscape:zoom="2.5758936"
     inkscape:cx="27.517784"
     inkscape:cy="79.680501"
     inkscape:window-x="0"
     inkscape:window-y="0"
     inkscape:window-maximized="1"
     inkscape:current-layer="svg2">
    <inkscape:grid
       type="xygrid"
       id="grid817" />
  </sodipodi:namedview>
  <path
     style="opacity:1;fill:#ffffff;fill-opacity:1;fill-rule:nonzero;stroke:none;stroke-width:0;stroke-linecap:butt;stroke-linejoin:round;stroke-miterlimit:4;stroke-dasharray:none;stroke-dashoffset:0;stroke-opacity:1"
     d="M 20 0 C 8.92 0 0 8.92 0 20 L 0 180 C 0 191.08 8.92 200 20 200 L 180 200 C 191.08 200 200 191.08 200 180 L 200 20 C 200 8.92 191.08 0 180 0 L 20 0 z M 47.892578 40.982422 C 61.653097 41.188539 74.052886 54.500484 82.708984 75.201172 C 109.62098 63.084527 128.34081 62.178317 137.36719 72.634766 C 143.3679 79.586183 140.67355 90.89079 132.70312 103.99609 A 10.687739 10.942209 0 0 1 134.02148 109.23828 A 10.687739 10.942209 0 0 1 123.33398 120.18164 A 10.687739 10.942209 0 0 1 121.19336 119.95898 C 116.14385 126.11224 110.35686 132.41691 104.0625 138.67578 C 120.78886 154.93015 133.66061 171.31542 138.75977 185 L 126.56445 185 C 119.19131 171.14576 108.63593 158.04971 96.425781 146.01367 C 96.016076 146.39581 95.617584 146.783 95.205078 147.16406 C 95.062065 159.54224 93.86032 172.2926 91.441406 185 L 78.728516 185 C 81.904677 176.64989 83.779232 166.93104 84.560547 156.60742 C 75.992485 163.92894 67.107655 170.8628 58.400391 177.0293 C 63.112073 179.86584 67.6383 182.4533 72.123047 185 L 49.072266 185 C 48.650988 184.73272 48.224446 184.47675 47.804688 184.20703 C 47.385365 184.4778 46.972499 184.73222 46.554688 185 L 24.748047 185 C 29.100791 182.83742 33.555258 180.37683 38.064453 177.6543 C 30.059236 172.05009 22.354895 166.15703 15 160.46289 L 15 145.52734 C 28.085864 156.65619 38.908718 164.55638 48.607422 170.89648 C 61.111178 162.44722 73.63029 152.46974 84.96875 142.20117 C 84.931073 139.87651 84.852584 137.54082 84.722656 135.20117 C 72.809358 124.86297 59.924025 115.50457 47.208984 107.3125 C 36.402598 114.431 25.458964 122.71636 15 132.0918 L 15 116.85547 C 22.748253 111.14965 30.200752 105.90106 37.328125 101.14062 C 30.873478 97.251932 24.574754 93.729675 18.53125 90.533203 C 17.337572 94.090953 16.161807 97.96569 15 102.07617 L 15 66.095703 C 26.040424 48.364995 37.362232 40.824691 47.892578 40.982422 z M 47.611328 51.816406 C 47.347984 51.814712 47.082568 51.820878 46.818359 51.835938 C 38.89211 52.287703 30.553943 60.40385 22.664062 79.408203 C 30.909595 83.723868 39.426019 88.728671 47.941406 94.25 C 56.866341 88.63571 65.23336 83.843142 73.013672 79.865234 C 66.450909 63.690402 57.760331 52.507095 48.398438 51.845703 C 48.136196 51.827178 47.874672 51.8181 47.611328 51.816406 z M 119.91406 76.580078 C 112.31155 76.749233 100.52291 79.927512 86.626953 85.867188 C 90.793205 98.842644 93.63902 113.87987 94.726562 129.96289 C 95.267716 130.44784 95.794732 130.93583 96.330078 131.42188 C 102.67765 125.10356 108.43153 118.84306 113.28516 112.93164 A 10.687739 10.942209 0 0 1 112.64648 109.23828 A 10.687739 10.942209 0 0 1 123.33398 98.296875 A 10.687739 10.942209 0 0 1 123.84375 98.322266 C 129.05242 89.721875 131.02086 82.843491 128.34766 79.115234 C 127.21356 77.533543 124.81214 76.699809 121.37891 76.585938 C 120.9099 76.570397 120.4209 76.568808 119.91406 76.580078 z M 76.769531 90.388672 C 70.628321 93.382677 64.207178 96.850302 57.648438 100.76562 C 66.422143 106.84923 75.063737 113.38663 83.283203 120.15234 C 81.869577 109.71205 79.635201 99.549806 76.769531 90.388672 z M 47.652344 121.36133 A 17.543903 17.633871 15 0 1 52.349609 121.95508 A 17.543903 17.633871 15 0 1 64.732422 143.52734 A 17.543903 17.633871 15 0 1 43.224609 156.01953 A 17.543903 17.633871 15 0 1 30.841797 134.44531 A 17.543903 17.633871 15 0 1 47.652344 121.36133 z "
     id="rect821" />
</svg>
