<?xml version="1.0" encoding="UTF-8" standalone="no"?>
<!-- Created with Inkscape (http://www.inkscape.org/) -->

<svg
   xmlns:dc="http://purl.org/dc/elements/1.1/"
   xmlns:cc="http://creativecommons.org/ns#"
   xmlns:rdf="http://www.w3.org/1999/02/22-rdf-syntax-ns#"
   xmlns:svg="http://www.w3.org/2000/svg"
   xmlns="http://www.w3.org/2000/svg"
   xmlns:sodipodi="http://sodipodi.sourceforge.net/DTD/sodipodi-0.dtd"
   xmlns:inkscape="http://www.inkscape.org/namespaces/inkscape"
   width="24.799999mm"
   height="15.9mm"
   viewBox="0 0 24.8 15.9"
   version="1.1"
   id="svg8"
   inkscape:version="0.92.2 2405546, 2018-03-11"
   sodipodi:docname="logo.svg">
  <defs
     id="defs2" />
  <sodipodi:namedview
     id="base"
     pagecolor="#ffffff"
     bordercolor="#666666"
     borderopacity="1.0"
     inkscape:pageopacity="0.0"
     inkscape:pageshadow="2"
     inkscape:zoom="9.2666287"
     inkscape:cx="49.89779"
     inkscape:cy="26.102752"
     inkscape:document-units="mm"
     inkscape:current-layer="layer1"
     showgrid="false"
     inkscape:pagecheckerboard="true"
     borderlayer="true"
     inkscape:window-width="1280"
     inkscape:window-height="971"
     inkscape:window-x="0"
     inkscape:window-y="0"
     inkscape:window-maximized="1">
    <inkscape:grid
       type="xygrid"
       id="grid815"
       spacingx="0.52916667"
       spacingy="0.52916667"
       originy="0.66145834"
       originx="-7.3436627e-18" />
  </sodipodi:namedview>
  <metadata
     id="metadata5">
    <rdf:RDF>
      <cc:Work
         rdf:about="">
        <dc:format>image/svg+xml</dc:format>
        <dc:type
           rdf:resource="http://purl.org/dc/dcmitype/StillImage" />
        <dc:title />
      </cc:Work>
    </rdf:RDF>
  </metadata>
  <g
     inkscape:label="Livello 1"
     inkscape:groupmode="layer"
     id="layer1"
     transform="translate(0,-281.1)">
    <path
       style="fill:#344179;fill-opacity:1;fill-rule:evenodd;stroke:none;stroke-width:0.99999994px;stroke-linecap:butt;stroke-linejoin:miter;stroke-opacity:1"
       d="M 10.072266 0.05859375 C 10.364461 6.4679921 8.3901255 10.95438 0.072265625 10.058594 L 0.072265625 20.058594 L 10.072266 20.058594 L 10.072266 50.058594 L 0.072265625 50.058594 L 0.072265625 60.058594 L 30.072266 60.058594 L 31.591797 51.699219 L 40.072266 50.058594 L 46.072266 60.058594 C 55.08475 60.058594 62.415437 55.903786 66.511719 50.283203 C 66.528586 46.760015 66.5625 40.960884 66.5625 31.708984 C 66.5625 30.684037 66.557545 30.631871 66.556641 29.613281 C 62.768079 24.103503 56.426576 20.058594 50.072266 20.058594 L 50.072266 10.058594 L 66.503906 10.058594 C 66.502864 9.8246845 66.498047 7.8419839 66.498047 7.8007812 C 66.239927 5.5320279 65.53072 5.0085039 62.691406 4.8339844 L 61.529297 4.8339844 L 61.529297 2.8261719 C 61.529297 0.99371723 61.529143 0.8203125 61.658203 0.8203125 C 61.722733 0.8203125 63.916776 0.55733199 66.5625 0.3828125 C 68.201065 0.22068591 68.752026 0.15853438 69.679688 0.05859375 L 40.072266 0.05859375 L 39.353516 46.417969 L 31.390625 47.820312 L 20.072266 0.05859375 L 10.072266 0.05859375 z M 71.791016 0.09375 L 71.791016 28.394531 C 73.855971 24.991401 76.500411 21.849609 81.082031 21.849609 C 86.43801 21.849609 89.27673 25.077244 89.792969 31.708984 C 89.857499 32.319803 89.859375 36.771804 89.859375 43.839844 C 89.859375 51.431442 89.859298 55.009074 89.923828 55.183594 C 90.052888 55.532633 90.374616 55.968059 90.697266 56.142578 C 91.139472 56.228002 92.509058 56.395269 93.777344 56.402344 L 93.777344 0.09375 L 71.791016 0.09375 z M 79.791016 25.166016 C 77.274351 25.166016 76.113016 26.213098 74.693359 28.132812 C 73.144643 30.227046 72.306948 32.669196 72.048828 35.810547 C 72.048828 36.334105 71.984375 41.045786 71.984375 45.757812 C 71.984375 50.469839 72.048828 55.009074 72.048828 55.183594 C 72.500537 56.31797 73.533315 56.404297 75.082031 56.404297 L 75.984375 56.404297 L 77.017578 56.404297 L 77.017578 60.203125 L 79.404297 60.203125 L 79.404297 56.404297 L 80.4375 56.404297 L 80.953125 56.404297 C 82.566371 56.404297 84.373047 56.316709 84.373047 55.007812 C 84.437577 54.833293 84.4375 49.424018 84.4375 42.966797 C 84.37297 32.321108 84.373124 31.273619 84.308594 30.488281 C 83.727825 26.910632 82.630329 25.166016 79.791016 25.166016 z M 69.273438 60.15625 C 68.755776 60.15625 67.616149 60.16858 66.583984 60.179688 L 66.583984 60.203125 L 73.496094 60.203125 C 71.870068 60.161037 70.080481 60.15625 69.273438 60.15625 z M 87.148438 60.15625 C 86.341394 60.15625 84.551807 60.161037 82.925781 60.203125 L 91.371094 60.203125 C 89.745068 60.161037 87.955481 60.15625 87.148438 60.15625 z "
       transform="matrix(0.26458333,0,0,0.26458333,0,281.1)"
       id="path817" />
  </g>
</svg>
