<?xml version="1.0" encoding="UTF-8" standalone="no"?>
<!-- Created with Inkscape (http://www.inkscape.org/) -->

<svg
   xmlns:dc="http://purl.org/dc/elements/1.1/"
   xmlns:cc="http://creativecommons.org/ns#"
   xmlns:rdf="http://www.w3.org/1999/02/22-rdf-syntax-ns#"
   xmlns:svg="http://www.w3.org/2000/svg"
   xmlns="http://www.w3.org/2000/svg"
   xmlns:sodipodi="http://sodipodi.sourceforge.net/DTD/sodipodi-0.dtd"
   xmlns:inkscape="http://www.inkscape.org/namespaces/inkscape"
   version="1.1"
   id="svg2"
   width="330.46155"
   height="150.13986"
   viewBox="0 0 330.46155 150.13986"
   sodipodi:docname="scrissors.svg"
   inkscape:version="0.92.2 2405546, 2018-03-11">
  <metadata
     id="metadata8">
    <rdf:RDF>
      <cc:Work
         rdf:about="">
        <dc:format>image/svg+xml</dc:format>
        <dc:type
           rdf:resource="http://purl.org/dc/dcmitype/StillImage" />
        <dc:title></dc:title>
      </cc:Work>
    </rdf:RDF>
  </metadata>
  <defs
     id="defs6" />
  <sodipodi:namedview
     pagecolor="#ffffff"
     bordercolor="#666666"
     borderopacity="1"
     objecttolerance="10"
     gridtolerance="10"
     guidetolerance="10"
     inkscape:pageopacity="0"
     inkscape:pageshadow="2"
     inkscape:window-width="1280"
     inkscape:window-height="971"
     id="namedview4"
     showgrid="false"
     inkscape:pagecheckerboard="true"
     inkscape:zoom="2.1062614"
     inkscape:cx="150.18723"
     inkscape:cy="99.777328"
     inkscape:window-x="0"
     inkscape:window-y="0"
     inkscape:window-maximized="1"
     inkscape:current-layer="svg2">
    <inkscape:grid
       type="xygrid"
       id="grid817" />
  </sodipodi:namedview>
  <path
     style="fill:#000000;fill-opacity:1;fill-rule:evenodd;stroke:none;stroke-width:0.88451558px;stroke-linecap:butt;stroke-linejoin:miter;stroke-opacity:1"
     d="M 105.43652,1.1207818 C 78.832679,0.89290984 60.019751,26.475694 89.633117,53.792808 106.46026,72.011806 125.14045,87.916116 132.20835,124.11351 88.896385,136.55159 71.635723,126.44336 33.206685,120.0347 0.2232372,120.58027 -0.41177493,144.03537 0.59430679,150.09525 l 16.10346721,0.002 c -2.915438,-22.05493 39.661147,-21.65833 44.918598,0.002 -0.179904,0.002 -0.280932,0.002 -0.459027,0.003 l 269.200805,0.03 C 320.23822,130.14409 292.82764,122.84637 280.33131,122.59138 L 162.00942,120.5595 C 150.37791,100.41691 131.48144,79.4386 123.45647,65.257392 137.26776,67.193806 171.929,47.925656 137.81135,14.68741 127.45016,5.2517961 115.84672,1.2099498 105.43652,1.1207818 Z m 2.12725,13.5631682 c 15.95175,-0.37396 33.11918,17.586886 25.41083,30.07063 -3.21099,5.650482 -13.92598,13.942528 -29.22773,4.281 C 89.807525,40.185982 90.273591,24.90714 94.003704,20.864842 97.91052,16.631044 102.68057,14.79843 107.56377,14.68395 Z"
     id="path819"
     inkscape:connector-curvature="0" />
</svg>
